<svg xmlns="http://www.w3.org/2000/svg" viewBox="0 0 1800 1050" width="1800" height="1050" font-family="'JetBrains Mono','PingFang SC','Microsoft YaHei',Arial,sans-serif" data-style="architecture-diagram-wireframe-white">
  <title>图14-5 IoT DC3 容器化部署架构</title>
  <desc>三列分组：左列为 PostgreSQL、Compose DNS、运行时配置和 RabbitMQ，中列为鉴权、管理、数据和 Agentic 中心，右列为可下沉边缘的南向驱动。Web 对外暴露 8080/8443 并转发到内部 8000 端口的 Gateway；驱动通过 RabbitMQ 与 Data 双向通信，并在 Compose 网络内访问 Manager；底部标注真实数据卷与运行时配置注入。</desc>
  <defs>
    <marker id="ah-blue" markerWidth="10" markerHeight="7" refX="9" refY="3.5" orient="auto"><polygon points="0 0,10 3.5,0 7" fill="#2563EB"/></marker>
    <marker id="ah-gray" markerWidth="10" markerHeight="7" refX="9" refY="3.5" orient="auto"><polygon points="0 0,10 3.5,0 7" fill="#64748B"/></marker>
    <marker id="ah-green" markerWidth="10" markerHeight="7" refX="9" refY="3.5" orient="auto-start-reverse"><polygon points="0 0,10 3.5,0 7" fill="#10B981"/></marker>
    <marker id="ah-orange" markerWidth="10" markerHeight="7" refX="9" refY="3.5" orient="auto"><polygon points="0 0,10 3.5,0 7" fill="#F59E0B"/></marker>
    <marker id="ah-purple" markerWidth="10" markerHeight="7" refX="9" refY="3.5" orient="auto"><polygon points="0 0,10 3.5,0 7" fill="#7C3AED"/></marker>
    <marker id="ah-red" markerWidth="10" markerHeight="7" refX="9" refY="3.5" orient="auto"><polygon points="0 0,10 3.5,0 7" fill="#E11D48"/></marker>
  </defs>

  <!-- Canvas -->
  <rect x="0" y="0" width="1800" height="1050" fill="#FFFFFF"/>

  <!-- ===== Title area ===== -->
  <circle cx="64" cy="40" r="6" fill="#2563EB"/>
  <text x="84" y="38" font-size="22" font-weight="700" fill="#0F172A" dominant-baseline="middle">图14-5  IoT DC3 容器化部署架构</text>
  <text x="84" y="64" font-size="12" fill="#64748B" dominant-baseline="middle">开发到生产的容器化拓扑：Web 入口 · Gateway · 四个中心服务 · 基础设施 · 南向驱动（边云分离）</text>
  <rect x="1620" y="26" width="140" height="28" rx="14" fill="#FFFFFF" stroke="#E2E8F0" stroke-width="1"/>
  <text x="1690" y="40" font-size="11" font-weight="600" fill="#64748B" text-anchor="middle" dominant-baseline="middle" letter-spacing="1.5">ARCHITECTURE</text>
  <line x1="60" y1="103" x2="1740" y2="103" stroke="#E2E8F0" stroke-width="1"/>

  <!-- External access hint -->
  <text x="470" y="120" font-size="10" fill="#94A3B8" dominant-baseline="middle">外部访问</text>
  <line x1="470" y1="158" x2="538" y2="158" stroke="#64748B" stroke-width="1.5" marker-end="url(#ah-gray)"/>

  <!-- ===== Gateway bar ===== -->
  <rect x="540" y="125" width="570" height="66" rx="6" fill="#FFFFFF" stroke="#2563EB" stroke-width="2"/>
  <text x="560" y="152" font-size="15" font-weight="700" fill="#0F172A" dominant-baseline="middle">Web / Nginx → Gateway</text>
  <text x="560" y="174" font-size="10" fill="#475569" dominant-baseline="middle">Web 统一入口与 TLS 终止 · Gateway 仅在 Compose 网络提供 8000</text>
  <rect x="970" y="140" width="128" height="36" rx="6" fill="#F8FAFC" stroke="#2563EB" stroke-width="1.5"/>
  <text x="1034" y="154" font-size="9" fill="#64748B" text-anchor="middle" dominant-baseline="middle">WEB EXPOSE</text>
  <text x="1034" y="170" font-size="12" font-weight="700" fill="#2563EB" text-anchor="middle" dominant-baseline="middle">8080 / 8443</text>

  <!-- Gateway -> Platform layer -->
  <line x1="825" y1="191" x2="825" y2="212" stroke="#2563EB" stroke-width="2" marker-end="url(#ah-blue)"/>
  <text x="838" y="205" font-size="10" fill="#2563EB" dominant-baseline="middle">路由</text>

  <!-- ===== Column boundary boxes ===== -->
  <rect x="70" y="215" width="420" height="555" rx="12" fill="none" stroke="#64748B" stroke-width="1.5" stroke-dasharray="8 4"/>
  <rect x="530" y="215" width="580" height="555" rx="12" fill="none" stroke="#2563EB" stroke-width="1.5" stroke-dasharray="8 4"/>
  <rect x="1150" y="215" width="580" height="555" rx="12" fill="none" stroke="#10B981" stroke-width="1.5" stroke-dasharray="8 4"/>

  <!-- Column labels -->
  <rect x="86" y="228" width="160" height="22" rx="4" fill="#FFFFFF" stroke="#64748B" stroke-width="1"/>
  <text x="166" y="240" font-size="10" font-weight="700" fill="#64748B" text-anchor="middle" dominant-baseline="middle" letter-spacing="0.5">基础设施 / INFRASTRUCTURE</text>
  <rect x="546" y="228" width="140" height="22" rx="4" fill="#FFFFFF" stroke="#2563EB" stroke-width="1"/>
  <text x="616" y="240" font-size="10" font-weight="700" fill="#2563EB" text-anchor="middle" dominant-baseline="middle" letter-spacing="0.5">平台服务 / PLATFORM</text>
  <rect x="1166" y="228" width="160" height="22" rx="4" fill="#FFFFFF" stroke="#10B981" stroke-width="1"/>
  <text x="1246" y="240" font-size="10" font-weight="700" fill="#10B981" text-anchor="middle" dominant-baseline="middle" letter-spacing="0.5">南向驱动 / EDGE DRIVERS</text>

  <!-- ===== LEFT COLUMN: middleware (gray) ===== -->
  <!-- PostgreSQL (cylinder, row1) -->
  <rect x="90" y="290" width="380" height="85" rx="6" fill="#FFFFFF" stroke="#64748B" stroke-width="2"/>
  <g transform="translate(108,305)">
    <ellipse cx="18" cy="7" rx="18" ry="6" fill="#F8FAFC" stroke="#64748B" stroke-width="1.5"/>
    <path d="M0,7 L0,48" stroke="#64748B" stroke-width="1.5" fill="none"/>
    <path d="M36,7 L36,48" stroke="#64748B" stroke-width="1.5" fill="none"/>
    <path d="M0,48 A18,6 0 0 0 36,48" stroke="#64748B" stroke-width="1.5" fill="#F8FAFC"/>
    <ellipse cx="18" cy="7" rx="18" ry="6" fill="none" stroke="#64748B" stroke-width="1.5"/>
  </g>
  <text x="172" y="318" font-size="15" font-weight="700" fill="#0F172A" dominant-baseline="middle">PostgreSQL</text>
  <text x="172" y="340" font-size="10" fill="#475569" dominant-baseline="middle">关系数据库 · 用户 / 元数据 / 历史位号值</text>
  <text x="172" y="358" font-size="9" fill="#64748B" dominant-baseline="middle">卷 postgres · 容器端口 5432</text>

  <!-- Compose DNS (card, row2) -->
  <rect x="90" y="400" width="380" height="85" rx="6" fill="#FFFFFF" stroke="#64748B" stroke-width="2"/>
  <rect x="106" y="416" width="40" height="40" rx="4" fill="#F8FAFC" stroke="#64748B" stroke-width="1.5"/>
  <text x="126" y="438" font-size="11" font-weight="700" fill="#64748B" text-anchor="middle" dominant-baseline="middle">DNS</text>
  <text x="160" y="426" font-size="15" font-weight="700" fill="#0F172A" dominant-baseline="middle">Compose DNS</text>
  <text x="160" y="448" font-size="10" fill="#475569" dominant-baseline="middle">固定服务名 · dc3net 网络内寻址</text>
  <text x="160" y="466" font-size="9" fill="#64748B" dominant-baseline="middle">CENTER_*_HOST · GATEWAY_ROUTE_*_URI</text>

  <!-- Runtime config (card, row3) -->
  <rect x="90" y="510" width="380" height="85" rx="6" fill="#FFFFFF" stroke="#64748B" stroke-width="2"/>
  <rect x="106" y="526" width="40" height="40" rx="4" fill="#F8FAFC" stroke="#64748B" stroke-width="1.5"/>
  <text x="126" y="548" font-size="10" font-weight="700" fill="#64748B" text-anchor="middle" dominant-baseline="middle">ENV</text>
  <text x="160" y="536" font-size="15" font-weight="700" fill="#0F172A" dominant-baseline="middle">Runtime Config / .env</text>
  <text x="160" y="558" font-size="10" fill="#475569" dominant-baseline="middle">数据库 / 消息队列 / 模型 API 配置</text>
  <text x="160" y="576" font-size="9" fill="#64748B" dominant-baseline="middle">运行时环境变量注入 · 不进入镜像</text>

  <!-- RabbitMQ (card, row4) -->
  <rect x="90" y="620" width="380" height="85" rx="6" fill="#FFFFFF" stroke="#64748B" stroke-width="2"/>
  <rect x="106" y="636" width="40" height="40" rx="4" fill="#F8FAFC" stroke="#64748B" stroke-width="1.5"/>
  <line x1="114" y1="648" x2="138" y2="648" stroke="#64748B" stroke-width="1.2"/>
  <line x1="114" y1="656" x2="138" y2="656" stroke="#64748B" stroke-width="1.2"/>
  <line x1="114" y1="664" x2="138" y2="664" stroke="#64748B" stroke-width="1.2"/>
  <text x="160" y="646" font-size="15" font-weight="700" fill="#0F172A" dominant-baseline="middle">RabbitMQ</text>
  <text x="160" y="668" font-size="10" fill="#475569" dominant-baseline="middle">消息总线 · 位号值 / 命令 / 状态 / 回执</text>
  <text x="160" y="686" font-size="9" fill="#64748B" dominant-baseline="middle">卷 rabbitmq · AMQP 5672 / MQTT 1883</text>

  <!-- ===== MIDDLE COLUMN: platform + intelligent ===== -->
  <!-- Auth Center (blue, row1) -->
  <rect x="550" y="290" width="540" height="85" rx="6" fill="#FFFFFF" stroke="#2563EB" stroke-width="2"/>
  <rect x="566" y="306" width="6" height="53" rx="2" fill="#2563EB"/>
  <text x="586" y="318" font-size="15" font-weight="700" fill="#0F172A" dominant-baseline="middle">鉴权中心  dc3-center-auth</text>
  <text x="586" y="340" font-size="10" fill="#475569" dominant-baseline="middle">用户登录 · Token 签发 · 权限校验</text>
  <text x="586" y="358" font-size="9" fill="#64748B" dominant-baseline="middle">PostgreSQL · Compose DNS · Runtime Config</text>

  <!-- Management Center (blue, row2) -->
  <rect x="550" y="400" width="540" height="85" rx="6" fill="#FFFFFF" stroke="#2563EB" stroke-width="2"/>
  <rect x="566" y="416" width="6" height="53" rx="2" fill="#2563EB"/>
  <text x="586" y="428" font-size="15" font-weight="700" fill="#0F172A" dominant-baseline="middle">管理中心  dc3-center-manager</text>
  <text x="586" y="450" font-size="10" fill="#475569" dominant-baseline="middle">设备 / 点位 / 模型元数据管理</text>
  <text x="586" y="468" font-size="9" fill="#64748B" dominant-baseline="middle">PostgreSQL · Driver gRPC 业务注册</text>

  <!-- Data Center (blue, row3) -->
  <rect x="550" y="510" width="540" height="85" rx="6" fill="#FFFFFF" stroke="#2563EB" stroke-width="2"/>
  <rect x="566" y="526" width="6" height="53" rx="2" fill="#2563EB"/>
  <text x="586" y="538" font-size="15" font-weight="700" fill="#0F172A" dominant-baseline="middle">数据中心  dc3-center-data</text>
  <text x="586" y="560" font-size="10" fill="#475569" dominant-baseline="middle">最新值 Caffeine · 历史值 PostgreSQL</text>
  <text x="586" y="578" font-size="9" fill="#64748B" dominant-baseline="middle">RabbitMQ 双向设备消息 · 进程内批量缓冲</text>

  <!-- Agentic Center (orange, row4) -->
  <rect x="550" y="620" width="540" height="85" rx="6" fill="#FFFFFF" stroke="#F59E0B" stroke-width="2"/>
  <rect x="566" y="636" width="6" height="53" rx="2" fill="#F59E0B"/>
  <text x="586" y="648" font-size="15" font-weight="700" fill="#0F172A" dominant-baseline="middle">智能中心  dc3-center-agentic</text>
  <text x="586" y="670" font-size="10" fill="#475569" dominant-baseline="middle">ChatClient · Tools · 会话与 Action 确认</text>
  <text x="586" y="688" font-size="9" fill="#64748B" dominant-baseline="middle">通过 Runtime Config 调用外部模型 API</text>

  <!-- ===== RIGHT COLUMN: southbound drivers (green) ===== -->
  <!-- driver-mqtt -->
  <rect x="1170" y="300" width="540" height="80" rx="6" fill="#FFFFFF" stroke="#10B981" stroke-width="2"/>
  <rect x="1186" y="316" width="6" height="48" rx="2" fill="#10B981"/>
  <text x="1206" y="328" font-size="15" font-weight="700" fill="#0F172A" dominant-baseline="middle">driver-mqtt</text>
  <text x="1206" y="350" font-size="10" fill="#475569" dominant-baseline="middle">MQTT 协议接入 · 发布 / 订阅设备数据</text>
  <text x="1206" y="368" font-size="9" fill="#64748B" dominant-baseline="middle">RabbitMQ 双向消息 · Manager gRPC 注册</text>

  <!-- driver-modbus -->
  <rect x="1170" y="420" width="540" height="80" rx="6" fill="#FFFFFF" stroke="#10B981" stroke-width="2"/>
  <rect x="1186" y="436" width="6" height="48" rx="2" fill="#10B981"/>
  <text x="1206" y="448" font-size="15" font-weight="700" fill="#0F172A" dominant-baseline="middle">driver-modbus</text>
  <text x="1206" y="470" font-size="10" fill="#475569" dominant-baseline="middle">Modbus TCP/RTU 轮询 · 寄存器读写</text>
  <text x="1206" y="488" font-size="9" fill="#64748B" dominant-baseline="middle">RabbitMQ 双向消息 · Manager gRPC 注册</text>

  <!-- driver-opcua -->
  <rect x="1170" y="540" width="540" height="80" rx="6" fill="#FFFFFF" stroke="#10B981" stroke-width="2"/>
  <rect x="1186" y="556" width="6" height="48" rx="2" fill="#10B981"/>
  <text x="1206" y="568" font-size="15" font-weight="700" fill="#0F172A" dominant-baseline="middle">driver-opcua</text>
  <text x="1206" y="590" font-size="10" fill="#475569" dominant-baseline="middle">OPC UA 订阅 · 工控设备节点采集</text>
  <text x="1206" y="608" font-size="9" fill="#64748B" dominant-baseline="middle">RabbitMQ 双向消息 · Manager gRPC 注册</text>

  <!-- Edge note -->
  <rect x="1170" y="660" width="540" height="70" rx="6" fill="#F8FAFC" stroke="#10B981" stroke-width="1.2" stroke-dasharray="4 3"/>
  <text x="1440" y="684" font-size="11" font-weight="700" fill="#10B981" text-anchor="middle" dominant-baseline="middle">边云分离 · Edge–Cloud Separation</text>
  <text x="1440" y="704" font-size="10" fill="#475569" text-anchor="middle" dominant-baseline="middle">驱动经 RabbitMQ 与 Data 通信，并通过 Compose 网络访问 Manager</text>
  <text x="1440" y="720" font-size="9" fill="#64748B" text-anchor="middle" dominant-baseline="middle">可下沉边缘 · 不直连平台数据库</text>

  <!-- ===== Sync dependency arrows (gray solid) ===== -->
  <!-- Auth -> PostgreSQL (row1) -->
  <line x1="548" y1="332" x2="474" y2="332" stroke="#64748B" stroke-width="1.8" marker-end="url(#ah-gray)"/>
  <text x="511" y="324" font-size="9" fill="#64748B" text-anchor="middle" dominant-baseline="middle">鉴权库</text>

  <!-- Services -> Compose DNS (row2) -->
  <line x1="548" y1="442" x2="474" y2="442" stroke="#64748B" stroke-width="1.8" marker-end="url(#ah-gray)"/>
  <text x="511" y="434" font-size="9" fill="#64748B" text-anchor="middle" dominant-baseline="middle">服务寻址</text>

  <!-- Management -> PostgreSQL (L up-left) -->
  <path d="M 548,414 L 510,414 L 510,360 L 474,360" fill="none" stroke="#64748B" stroke-width="1.4" marker-end="url(#ah-gray)"/>
  <text x="498" y="388" font-size="9" fill="#64748B" text-anchor="middle" dominant-baseline="middle">元数据</text>

  <!-- Services -> runtime config (row3) -->
  <line x1="548" y1="552" x2="474" y2="552" stroke="#64748B" stroke-width="1.8" marker-end="url(#ah-gray)"/>
  <text x="511" y="544" font-size="9" fill="#64748B" text-anchor="middle" dominant-baseline="middle">环境变量</text>

  <!-- Data -> PostgreSQL (L up-left) -->
  <path d="M 548,524 L 520,524 L 520,372 L 474,372" fill="none" stroke="#64748B" stroke-width="1.4" marker-end="url(#ah-gray)"/>
  <text x="508" y="450" font-size="9" fill="#64748B" text-anchor="middle" dominant-baseline="middle">关系</text>

  <!-- ===== Bidirectional path: drivers <-> RabbitMQ <-> Data Center (green dashed) ===== -->
  <!-- driver stubs to vertical bus at x=1158 -->
  <line x1="1168" y1="340" x2="1158" y2="340" stroke="#10B981" stroke-width="1.8"/>
  <line x1="1168" y1="460" x2="1158" y2="460" stroke="#10B981" stroke-width="1.8"/>
  <line x1="1168" y1="580" x2="1158" y2="580" stroke="#10B981" stroke-width="1.8"/>
  <!-- vertical bus -->
  <line x1="1158" y1="340" x2="1158" y2="780" stroke="#10B981" stroke-width="1.8" stroke-dasharray="5 4"/>
  <!-- horizontal bus under columns to RabbitMQ -->
  <path d="M 1158,780 L 280,780 L 280,708" fill="none" stroke="#10B981" stroke-width="1.8" stroke-dasharray="5 4" marker-start="url(#ah-green)" marker-end="url(#ah-green)"/>
  <text x="700" y="773" font-size="10" font-weight="600" fill="#10B981" text-anchor="middle" dominant-baseline="middle">位号值 / 命令 / 状态 / 回执 · RabbitMQ 双向传输</text>

  <!-- RabbitMQ <-> Data Center (green dashed) -->
  <path d="M 474,650 L 524,650 L 524,592 L 548,592" fill="none" stroke="#10B981" stroke-width="1.8" stroke-dasharray="5 4" marker-start="url(#ah-green)" marker-end="url(#ah-green)"/>
  <text x="500" y="624" font-size="9" fill="#10B981" text-anchor="middle" dominant-baseline="middle">双向</text>

  <!-- ===== Bottom band: volumes + env injection ===== -->
  <line x1="60" y1="788" x2="1740" y2="788" stroke="#E2E8F0" stroke-width="1" stroke-dasharray="2 3"/>

  <!-- Volumes group (left/center) -->
  <text x="90" y="812" font-size="12" font-weight="700" fill="#0F172A" dominant-baseline="middle">数据卷持久化  Volumes</text>
  <!-- postgres -->
  <g transform="translate(96,828)">
    <ellipse cx="16" cy="6" rx="16" ry="5" fill="#F8FAFC" stroke="#7C3AED" stroke-width="1.5"/>
    <path d="M0,6 L0,40" stroke="#7C3AED" stroke-width="1.5" fill="none"/>
    <path d="M32,6 L32,40" stroke="#7C3AED" stroke-width="1.5" fill="none"/>
    <path d="M0,40 A16,5 0 0 0 32,40" stroke="#7C3AED" stroke-width="1.5" fill="#F8FAFC"/>
    <ellipse cx="16" cy="6" rx="16" ry="5" fill="none" stroke="#7C3AED" stroke-width="1.5"/>
  </g>
  <text x="144" y="846" font-size="10" fill="#475569" dominant-baseline="middle">postgres</text>
  <text x="144" y="862" font-size="9" fill="#64748B" dominant-baseline="middle">数据库</text>
  <!-- rabbitmq -->
  <g transform="translate(232,828)">
    <ellipse cx="16" cy="6" rx="16" ry="5" fill="#F8FAFC" stroke="#7C3AED" stroke-width="1.5"/>
    <path d="M0,6 L0,40" stroke="#7C3AED" stroke-width="1.5" fill="none"/>
    <path d="M32,6 L32,40" stroke="#7C3AED" stroke-width="1.5" fill="none"/>
    <path d="M0,40 A16,5 0 0 0 32,40" stroke="#7C3AED" stroke-width="1.5" fill="#F8FAFC"/>
    <ellipse cx="16" cy="6" rx="16" ry="5" fill="none" stroke="#7C3AED" stroke-width="1.5"/>
  </g>
  <text x="280" y="846" font-size="10" fill="#475569" dominant-baseline="middle">rabbitmq</text>
  <text x="280" y="862" font-size="9" fill="#64748B" dominant-baseline="middle">消息数据</text>
  <!-- logs -->
  <g transform="translate(368,828)">
    <ellipse cx="16" cy="6" rx="16" ry="5" fill="#F8FAFC" stroke="#7C3AED" stroke-width="1.5"/>
    <path d="M0,6 L0,40" stroke="#7C3AED" stroke-width="1.5" fill="none"/>
    <path d="M32,6 L32,40" stroke="#7C3AED" stroke-width="1.5" fill="none"/>
    <path d="M0,40 A16,5 0 0 0 32,40" stroke="#7C3AED" stroke-width="1.5" fill="#F8FAFC"/>
    <ellipse cx="16" cy="6" rx="16" ry="5" fill="none" stroke="#7C3AED" stroke-width="1.5"/>
  </g>
  <text x="416" y="846" font-size="10" fill="#475569" dominant-baseline="middle">logs</text>
  <text x="416" y="862" font-size="9" fill="#64748B" dominant-baseline="middle">服务日志</text>
  <!-- nginx -->
  <g transform="translate(520,828)">
    <ellipse cx="16" cy="6" rx="16" ry="5" fill="#F8FAFC" stroke="#7C3AED" stroke-width="1.5"/>
    <path d="M0,6 L0,40" stroke="#7C3AED" stroke-width="1.5" fill="none"/>
    <path d="M32,6 L32,40" stroke="#7C3AED" stroke-width="1.5" fill="none"/>
    <path d="M0,40 A16,5 0 0 0 32,40" stroke="#7C3AED" stroke-width="1.5" fill="#F8FAFC"/>
    <ellipse cx="16" cy="6" rx="16" ry="5" fill="none" stroke="#7C3AED" stroke-width="1.5"/>
  </g>
  <text x="568" y="846" font-size="10" fill="#475569" dominant-baseline="middle">nginx</text>
  <text x="568" y="862" font-size="9" fill="#64748B" dominant-baseline="middle">Web 日志</text>
  <text x="90" y="884" font-size="9" fill="#94A3B8" dominant-baseline="middle">显式 volume 挂载，容器重建不丢数据</text>

  <!-- .env config injection (right) -->
  <rect x="1180" y="820" width="480" height="70" rx="6" fill="#FFFFFF" stroke="#E11D48" stroke-width="1.5" stroke-dasharray="5 3"/>
  <text x="1200" y="842" font-size="12" font-weight="700" fill="#0F172A" dominant-baseline="middle">配置注入  .env · 密钥管理</text>
  <text x="1200" y="862" font-size="10" fill="#475569" dominant-baseline="middle">数据库口令 / Token 密钥 / 第三方凭证</text>
  <text x="1200" y="878" font-size="9" fill="#64748B" dominant-baseline="middle">敏感配置不入镜像，运行时环境变量注入全部容器</text>
  <!-- key glyph -->
  <g transform="translate(1600,838)">
    <circle cx="10" cy="14" r="7" fill="none" stroke="#E11D48" stroke-width="1.6"/>
    <path d="M17,14 L40,14 M34,14 L34,22 M40,14 L40,22" stroke="#E11D48" stroke-width="1.6" fill="none"/>
  </g>
  <!-- injection arrows up into stack -->
  <line x1="1300" y1="820" x2="1300" y2="772" stroke="#E11D48" stroke-width="1.4" stroke-dasharray="4 3" marker-end="url(#ah-red)"/>
  <line x1="1420" y1="820" x2="1420" y2="772" stroke="#E11D48" stroke-width="1.4" stroke-dasharray="4 3"/>

  <!-- ===== Legend ===== -->
  <line x1="60" y1="905" x2="1740" y2="905" stroke="#E2E8F0" stroke-width="1"/>
  <text x="60" y="925" font-size="10" font-weight="700" fill="#64748B" dominant-baseline="middle" letter-spacing="0.5">LEGEND</text>

  <rect x="130" y="918" width="16" height="12" rx="2" fill="#FFFFFF" stroke="#2563EB" stroke-width="1.8"/>
  <text x="152" y="925" font-size="10" fill="#475569" dominant-baseline="middle">平台主链路（蓝）</text>

  <rect x="290" y="918" width="16" height="12" rx="2" fill="#FFFFFF" stroke="#64748B" stroke-width="1.8"/>
  <text x="312" y="925" font-size="10" fill="#475569" dominant-baseline="middle">中间件（灰）</text>

  <rect x="420" y="918" width="16" height="12" rx="2" fill="#FFFFFF" stroke="#10B981" stroke-width="1.8"/>
  <text x="442" y="925" font-size="10" fill="#475569" dominant-baseline="middle">南向驱动（绿）</text>

  <rect x="560" y="918" width="16" height="12" rx="2" fill="#FFFFFF" stroke="#F59E0B" stroke-width="1.8"/>
  <text x="582" y="925" font-size="10" fill="#475569" dominant-baseline="middle">智能中心（橙）</text>

  <line x1="710" y1="925" x2="746" y2="925" stroke="#64748B" stroke-width="1.8" marker-end="url(#ah-gray)"/>
  <text x="752" y="925" font-size="10" fill="#475569" dominant-baseline="middle">同步依赖</text>

  <line x1="840" y1="925" x2="876" y2="925" stroke="#10B981" stroke-width="1.8" stroke-dasharray="5 4" marker-end="url(#ah-green)"/>
  <text x="882" y="925" font-size="10" fill="#475569" dominant-baseline="middle">双向设备消息（Driver ↔ RabbitMQ ↔ Data）</text>

  <line x1="1180" y1="925" x2="1216" y2="925" stroke="#E11D48" stroke-width="1.4" stroke-dasharray="4 3" marker-end="url(#ah-red)"/>
  <text x="1222" y="925" font-size="10" fill="#475569" dominant-baseline="middle">敏感配置注入</text>

  <g transform="translate(1360,916)">
    <ellipse cx="8" cy="3" rx="8" ry="2.5" fill="#F8FAFC" stroke="#7C3AED" stroke-width="1.3"/>
    <path d="M0,3 L0,14" stroke="#7C3AED" stroke-width="1.3" fill="none"/>
    <path d="M16,3 L16,14" stroke="#7C3AED" stroke-width="1.3" fill="none"/>
    <path d="M0,14 A8,2.5 0 0 0 16,14" stroke="#7C3AED" stroke-width="1.3" fill="#F8FAFC"/>
    <ellipse cx="8" cy="3" rx="8" ry="2.5" fill="none" stroke="#7C3AED" stroke-width="1.3"/>
  </g>
  <text x="1384" y="925" font-size="10" fill="#475569" dominant-baseline="middle">数据卷（圆柱体）</text>

  <!-- ===== Caption ===== -->
  <text x="900" y="975" font-size="10" fill="#94A3B8" text-anchor="middle" dominant-baseline="middle">图14-5 部署架构：Web 暴露 8080/8443，Gateway 在 Compose 网络内监听 8000，四个中心服务按职责编排；</text>
  <text x="900" y="993" font-size="10" fill="#94A3B8" text-anchor="middle" dominant-baseline="middle">Driver 经 RabbitMQ 与 Data 双向通信并访问 Manager；配置由环境变量注入，PostgreSQL、RabbitMQ 与日志使用显式卷持久化。</text>
</svg>
